<svg width="24" height="24" viewBox="0 0 24 24" fill="none" xmlns="http://www.w3.org/2000/svg">
<path d="M24 12C24 18.6274 18.6274 24 12 24C5.37258 24 0 18.6274 0 12C0 5.37258 5.37258 0 12 0C18.6274 0 24 5.37258 24 12Z" fill="#444444"/>
<path d="M19.588 8.72V15.52V15.536L18.228 16.896H18.212V16.912H18.196H14.804C14.7933 16.912 14.7827 16.9067 14.772 16.896L13.876 15.984L12.964 15.088L12.74 14.864L12.516 14.624C12.5053 14.624 12.5 14.6187 12.5 14.608V7.808C12.5 7.78667 12.5107 7.776 12.532 7.776H14.084H14.132H14.116H14.58H14.596L15.508 8.688V8.72V13.888H16.58V11.456C16.58 11.4347 16.5853 11.4187 16.596 11.408C16.5853 11.408 16.58 11.4187 16.58 11.44V7.808C16.58 7.79733 16.5853 7.78667 16.596 7.776H16.612H16.804H16.852H16.836H17.252H17.3H18.196H18.212H18.228L18.388 7.952V7.808C18.388 7.78667 18.3987 7.776 18.42 7.776H18.66H18.676L19.588 8.688V8.72ZM18.692 7.888V14.592L19.524 15.44V8.72L18.692 7.888ZM18.196 16.832C18.2387 16.7893 18.324 16.704 18.452 16.576C18.5907 16.448 18.7293 16.3093 18.868 16.16C19.0173 16.0213 19.1507 15.888 19.268 15.76C19.396 15.632 19.476 15.552 19.508 15.52L18.66 14.656L17.332 15.968L18.196 16.832ZM13.204 8.224H13.22H13.236V8.24L13.412 8.416V8.256C13.412 8.23467 13.4227 8.224 13.444 8.224H14.116H14.132C14.132 8.23467 14.1373 8.24 14.148 8.24L14.308 8.416V8.064H12.836L12.996 8.224H13.204ZM13.236 8.336V14.592V14.624V14.608V14.8H13.412V8.496L13.236 8.336ZM14.148 8.336V10.96L14.308 11.136V8.496L14.148 8.336ZM16.996 15.712L16.82 15.552H14.196L14.356 15.712H16.804H16.852H16.836H16.996ZM16.868 15.712H16.852C16.852 15.712 16.8573 15.7173 16.868 15.728V15.712ZM14.148 15.712H14.276L14.148 15.6V15.712ZM17.028 15.664V15.536L16.868 15.36V15.504L17.028 15.664ZM17.028 15.296C17.028 15.2747 17.0387 15.264 17.06 15.264H17.492V15.088H13.972L14.132 15.264H16.836H16.852H16.868L17.028 15.44V15.296ZM13.972 11.008L14.308 11.36V11.216L14.1 11.008H13.972ZM16.42 14.464V14.592L16.628 14.8H16.756L16.42 14.464ZM17.332 8.336V8.688H17.668L17.492 8.512L17.332 8.336ZM17.78 11.408H17.94V9.408L17.78 9.248V11.408ZM17.78 8.928L17.94 9.088V8.96L17.78 8.784V8.928ZM17.94 8.512H17.604L17.764 8.688L17.94 8.864V8.512ZM17.364 8.976L17.54 9.136H17.748H17.764L17.94 9.312V9.184L17.732 8.976H17.364ZM17.14 14.64L17.3 14.8H17.94V14.64H17.14ZM13.7 14.352H13.86V11.2C13.86 11.1787 13.8707 11.168 13.892 11.168H14.036L13.876 11.008C13.8653 11.008 13.86 11.0027 13.86 10.992V10.976V8.72L13.7 8.56V14.352ZM13.86 8.512H13.748L13.86 8.64V8.512ZM13.748 14.64L13.908 14.8H16.356C16.388 14.8 16.404 14.8053 16.404 14.816C16.404 14.8053 16.3987 14.8 16.388 14.8H16.532L16.372 14.64H13.748ZM14.148 14.352H14.5L14.324 14.176C14.324 14.176 14.3187 14.1707 14.308 14.16V11.44L14.148 11.28V14.352ZM13.7 15.264H14.036L13.876 15.088C13.8653 15.088 13.86 15.0827 13.86 15.072V15.056V14.848L13.7 14.688V15.264ZM17.332 14.352H17.668L17.492 14.176V14.16V9.184L17.332 9.024V14.352ZM17.94 8.064H16.916L17.076 8.224H17.3H17.316V8.24L17.492 8.416V8.256C17.492 8.23467 17.5027 8.224 17.524 8.224H17.94V8.064ZM16.868 8.112V14.592L17.076 14.8H17.22L17.044 14.624C17.0333 14.624 17.028 14.6187 17.028 14.608V8.272L16.868 8.112ZM16.692 14.64L16.852 14.8H16.996L16.82 14.64H16.692ZM16.58 14.192H14.42L14.58 14.352H16.388H16.404L16.58 14.528V14.192ZM16.868 15.728V15.744V15.728ZM17.892 14.352L17.732 14.192H17.604L17.764 14.352H17.892ZM17.828 11.696L17.94 11.808V11.696H17.828ZM18.116 14.352L17.956 14.176H17.94V14.16V11.904L17.78 11.744V14.144L17.988 14.352H18.116ZM12.788 14.816L12.948 14.992V8.272L12.788 8.112V14.816ZM18.356 14.352L18.18 14.192H18.052L18.212 14.352H18.356ZM18.388 8.048L18.228 7.888V14.144L18.388 14.304V8.048ZM17.332 7.808C17.3213 7.79733 17.316 7.792 17.316 7.792C17.3267 7.80267 17.332 7.808 17.332 7.808ZM16.868 7.808V7.792V7.808ZM16.852 7.776H16.868H16.852ZM15.444 13.888V8.72L14.612 7.888V13.888H15.444ZM14.148 7.808V7.792V7.808ZM14.132 7.776H14.148H14.132ZM18.116 16.848C18.0947 16.8267 18.0413 16.7733 17.956 16.688C17.8813 16.6027 17.796 16.512 17.7 16.416C17.604 16.32 17.5133 16.2293 17.428 16.144C17.3533 16.0693 17.3053 16.0213 17.284 16H13.972L14.82 16.848H18.116Z" fill="white"/>
<path d="M11.5214 9.40799L11.6974 9.58399V9.61599V13.456V13.472V13.488H11.6814H11.6654H7.61738V16.864V16.88C7.61738 16.88 7.61204 16.8853 7.60138 16.896H7.58537H6.00138C5.99071 16.896 5.98537 16.8907 5.98537 16.88L5.80938 16.72V16.864V16.88H5.79338V16.896H5.77738H5.55338C5.54271 16.896 5.53204 16.8907 5.52138 16.88L4.62538 15.984C4.61471 15.984 4.60938 15.9787 4.60938 15.968V15.952V7.792C4.60938 7.792 4.61471 7.78666 4.62538 7.776C4.62538 7.76533 4.63071 7.75999 4.64137 7.75999H6.65738H6.68938H10.7694H10.7854V7.776L11.6974 8.67199V8.70399V9.37599V9.39199V9.40799H11.6814H11.6654H11.5214ZM11.6334 8.72C11.6334 8.72 11.596 8.68266 11.5214 8.608C11.4574 8.53333 11.3774 8.45333 11.2814 8.36799C11.196 8.27199 11.1054 8.18133 11.0094 8.09599C10.9134 7.99999 10.844 7.92533 10.8014 7.87199V8.46399C10.8227 8.48533 10.8707 8.53866 10.9454 8.62399C11.0307 8.69866 11.1214 8.78399 11.2174 8.87999C11.3134 8.97599 11.3987 9.06666 11.4734 9.15199C11.5587 9.23733 11.612 9.29066 11.6334 9.312V8.72ZM7.55338 16.784V13.472L6.72137 12.64V15.952L7.55338 16.784ZM8.68938 8.39999V8.24C8.68938 8.21866 8.70004 8.20799 8.72137 8.20799H10.4974V8.048H5.39337L5.55338 8.20799H8.49738V8.22399H8.51338L8.68938 8.39999ZM5.34538 11.04V15.696H5.69738L5.52138 15.52V15.504V11.216L5.34538 11.04ZM7.16938 11.04V11.84H7.50537L7.34538 11.664H7.32938V11.648V11.424C7.32938 11.4027 7.34004 11.392 7.36137 11.392H7.50537L7.16938 11.04ZM5.34538 9.68V10.48H5.69738L5.52138 10.304V10.288V9.856L5.34538 9.68ZM5.61737 8.51199L5.79338 8.67199H8.24137V8.51199H5.61737ZM8.97738 11.504V11.84H9.32938L8.97738 11.504ZM8.68938 11.216V11.2V11.216ZM8.68938 10.48V9.87199H6.75338L7.37738 10.48H8.68938ZM6.72137 10.48H7.28137L6.72137 9.91999V10.48ZM8.30538 9.13599V9.15199V9.13599ZM9.44138 9.232V11.392H9.60138V9.61599C9.60138 9.59466 9.61204 9.58399 9.63338 9.58399H9.77738L9.60138 9.40799L9.44138 9.232ZM6.25738 15.696H6.41738V15.296L6.25738 15.12V15.696ZM6.41738 15.2V15.056L6.20937 14.848H6.08138L6.41738 15.2ZM9.02538 9.40799L9.13738 9.536V9.40799H9.02538ZM10.4974 11.904H10.3854L10.4974 12.032V11.904ZM10.4654 12.304L10.2894 12.128H6.99338L7.15338 12.304H10.4654ZM6.72137 12.304H7.05737L6.88138 12.128V12.112V12.096V11.664L6.72137 11.504V12.304ZM10.3374 9.68V10.736L10.4974 10.896V9.856L10.3374 9.68ZM10.3374 11.616H10.4974V11.216L10.3374 11.04V11.616ZM10.4974 11.12V10.976L10.2894 10.768H10.1614L10.4974 11.12ZM9.93738 9.87199L10.0494 9.98399V9.87199H9.93738ZM9.88938 11.632L10.0494 11.792V10.976C10.0494 10.9547 10.06 10.944 10.0814 10.944H10.2254L10.0654 10.768L10.0494 10.752V10.736V10.08L9.88938 9.91999V11.632ZM9.71338 9.40799L9.87338 9.58399H10.3054H10.3214H10.3374L10.4974 9.75999V9.40799H9.71338ZM9.24938 11.68L9.40938 11.84H10.0014L9.84138 11.68H9.24938ZM6.41738 11.44L6.25738 11.28V14.816L6.41738 14.976V11.44ZM5.85738 11.232L5.96938 11.344V11.232H5.85738ZM6.68938 11.392H6.70538L6.88138 11.568V11.232H6.30538L6.46537 11.392H6.68938ZM10.4974 12.256V12.112L10.3374 11.952V12.096L10.4974 12.256ZM8.97738 11.184L9.13738 11.344V9.61599L8.97738 9.456V11.184ZM5.80938 15.488L5.96938 15.648V15.056C5.96938 15.0347 5.98004 15.024 6.00138 15.024H6.14538L5.98537 14.848H5.96938V14.832V14.816V11.44L5.80938 11.28V15.488ZM5.61737 8.95999L5.79338 9.12H8.24137H8.28938H8.27338H9.40938H9.42538V9.13599L9.60138 9.312V9.15199C9.60138 9.13066 9.61204 9.12 9.63338 9.12H10.4974V8.95999H5.61737ZM6.25738 10.48H6.41738V10.304L6.25738 10.144V10.48ZM5.85738 9.87199L6.01737 10.032H6.22538H6.24137H6.25738L6.41738 10.208V9.87199H5.85738ZM5.80938 10.272L5.96938 10.432V10.08L5.80938 9.91999V10.272ZM5.61737 10.32L5.79338 10.48H5.92138L5.76137 10.32H5.61737ZM7.44137 11.232L7.60138 11.392H8.94538H8.96138H8.97738L9.13738 11.568V11.44L8.92938 11.232H8.75338C8.73204 11.232 8.71604 11.2267 8.70538 11.216C8.70538 11.2267 8.71071 11.232 8.72137 11.232H7.44137ZM7.44137 11.68L7.60138 11.84H8.68938V11.68H7.44137ZM5.61737 15.536L5.79338 15.696H5.92138L5.76137 15.536H5.61737ZM5.52138 8.25599L5.34538 8.09599V9.12H5.69738L5.52138 8.94399V8.92799V8.70399C5.52138 8.68266 5.53204 8.67199 5.55338 8.67199H5.69738L5.52138 8.496V8.47999V8.25599ZM4.94537 8.048L5.05737 8.17599V8.048H4.94537ZM5.16937 9.40799L5.34538 9.58399L5.52138 9.75999V9.61599C5.52138 9.59466 5.53204 9.58399 5.55338 9.58399H8.68938V9.40799H5.16937ZM5.16937 10.768L5.34538 10.944L5.52138 11.12V10.976C5.52138 10.9547 5.53204 10.944 5.55338 10.944H7.13737H7.15338L7.32938 11.12V10.976C7.32938 10.9547 7.34004 10.944 7.36137 10.944H8.68938V10.768H5.16937ZM11.5854 13.424L10.7534 12.592H6.75338L7.60138 13.424H11.5854ZM8.86538 8.67199L8.52938 8.31999V8.67199H8.86538ZM6.72137 7.792H6.70538H6.72137ZM5.69738 16.832L4.84938 15.984H4.72137L5.55338 16.832H5.69738ZM5.74538 16.656L5.07337 15.984V15.968H5.05737V15.952V10.976C5.05737 10.9547 5.06804 10.944 5.08938 10.944H5.24938L5.07337 10.768V10.752H5.05737V10.736V9.61599C5.05737 9.59466 5.06804 9.58399 5.08938 9.58399H5.24938L5.07337 9.40799V9.39199H5.05737V9.37599V8.25599L4.89737 8.09599V15.952L5.74538 16.784V16.656ZM6.01737 16.832H7.50537L6.67338 15.984H5.16937L6.01737 16.832ZM11.6334 9.61599L11.4254 9.40799L10.8014 8.78399V9.824C10.8014 9.824 10.796 9.83466 10.7854 9.856C10.7854 9.84533 10.7907 9.83999 10.8014 9.83999V12.544L11.6334 13.392V9.61599ZM11.4574 9.344H11.5854L10.7534 8.51199H8.80138L8.96138 8.67199H10.7694H10.7854L11.4574 9.344Z" fill="white"/>
</svg>
